<svg viewBox="0 0 206 318" xmlns="http://www.w3.org/2000/svg"><path d="M102.66 316.72v-79.51a.46.46 0 01.24-.41l102.18-59a.46.46 0 00.24-.41v-22.61a.47.47 0 00-.71-.41l-101.24 58.45a.47.47 0 01-.71-.41v-22.62a.47.47 0 01.24-.41l102.18-59a.49.49 0 00.24-.41v-22.61a.48.48 0 00-.71-.41L103.37 165.4a.47.47 0 01-.71-.41v-22.61a.46.46 0 01.24-.41L205.08 83a.47.47 0 00.24-.41V59.67a1 1 0 00-.47-.82L103.13.13a.93.93 0 00-.94 0L82.84 11.3a.47.47 0 000 .82l101.24 58.45a.48.48 0 010 .82l-19.35 11.17a1 1 0 01-.95 0L62.07 23.84a1 1 0 00-1 0L41.78 35a.47.47 0 000 .82L143 94.28a.47.47 0 010 .82l-19.34 11.17a1 1 0 01-1 0L21 47.54a1 1 0 00-1 0L0 59.12V258a.46.46 0 00.24.41l19.58 11.31a.47.47 0 00.71-.41V71.8a.47.47 0 01.71-.41L40.83 82.7a.47.47 0 01.23.41v198.6c0 .17.092.327.24.41l19.58 11.31a.48.48 0 00.72-.42V95.51a.47.47 0 01.71-.41l19.58 11.3a.47.47 0 01.24.41v198.61a.49.49 0 00.23.41l19.64 11.3a.47.47 0 00.66-.41z" fill="#00ec58"/></svg>
